<svg xmlns="http://www.w3.org/2000/svg" xmlns:xlink="http://www.w3.org/1999/xlink" width="1920" zoomAndPan="magnify" viewBox="0 0 1440 809.999993" height="1080" preserveAspectRatio="xMidYMid meet" version="1.0"><defs><g/></defs><rect x="-144" width="1728" fill="#ffffff" y="-80.999999" height="971.999992" fill-opacity="1"/><rect x="-144" width="1728" fill="#ffffff" y="-80.999999" height="971.999992" fill-opacity="1"/><g fill="#000000" fill-opacity="1"><g transform="translate(447.501008, 441.081501)"><g><path d="M 30.921875 1.015625 C 26.472656 1.015625 22.484375 0.410156 18.953125 -0.796875 C 15.421875 -2.003906 12.472656 -3.59375 10.109375 -5.5625 C 7.753906 -7.53125 6 -9.691406 4.84375 -12.046875 L 9.390625 -17.5625 L 10.59375 -17.5625 C 14.988281 -10.175781 21.765625 -6.484375 30.921875 -6.484375 C 36.253906 -6.484375 40.21875 -7.597656 42.8125 -9.828125 C 45.40625 -12.054688 46.703125 -15.15625 46.703125 -19.125 C 46.703125 -21.445312 46.273438 -23.410156 45.421875 -25.015625 C 44.566406 -26.628906 43.15625 -28.007812 41.1875 -29.15625 C 39.21875 -30.300781 36.539062 -31.296875 33.15625 -32.140625 L 24.875 -34.171875 C 18.71875 -35.648438 14.175781 -38.007812 11.25 -41.25 C 8.332031 -44.5 6.875 -48.609375 6.875 -53.578125 C 6.875 -57.097656 7.773438 -60.234375 9.578125 -62.984375 C 11.390625 -65.742188 14.035156 -67.898438 17.515625 -69.453125 C 21.003906 -71.003906 25.171875 -71.78125 30.015625 -71.78125 C 35.335938 -71.78125 39.828125 -71.03125 43.484375 -69.53125 C 47.148438 -68.03125 50.078125 -65.78125 52.265625 -62.78125 L 48.203125 -57.3125 L 47 -57.3125 C 44.96875 -59.789062 42.5625 -61.609375 39.78125 -62.765625 C 37.007812 -63.929688 33.753906 -64.515625 30.015625 -64.515625 C 25.109375 -64.515625 21.40625 -63.5625 18.90625 -61.65625 C 16.40625 -59.757812 15.15625 -57.128906 15.15625 -53.765625 C 15.15625 -50.578125 16.070312 -48.035156 17.90625 -46.140625 C 19.75 -44.253906 22.847656 -42.796875 27.203125 -41.765625 L 35.671875 -39.734375 C 42.546875 -38.117188 47.519531 -35.640625 50.59375 -32.296875 C 53.675781 -28.960938 55.21875 -24.695312 55.21875 -19.5 C 55.21875 -15.5 54.320312 -11.957031 52.53125 -8.875 C 50.75 -5.800781 48.035156 -3.382812 44.390625 -1.625 C 40.742188 0.132812 36.253906 1.015625 30.921875 1.015625 Z M 30.921875 1.015625 "/></g></g></g><g fill="#000000" fill-opacity="1"><g transform="translate(508.145244, 441.081501)"><g><path d="M 30.640625 1.015625 C 25.929688 1.015625 21.703125 -0.0546875 17.953125 -2.203125 C 14.210938 -4.347656 11.257812 -7.507812 9.09375 -11.6875 C 6.9375 -15.863281 5.859375 -20.859375 5.859375 -26.671875 C 5.859375 -32.503906 6.9375 -37.507812 9.09375 -41.6875 C 11.257812 -45.875 14.210938 -49.039062 17.953125 -51.1875 C 21.703125 -53.332031 25.929688 -54.40625 30.640625 -54.40625 C 36.285156 -54.40625 40.773438 -53.335938 44.109375 -51.203125 C 47.453125 -49.078125 49.867188 -46.238281 51.359375 -42.6875 L 45.984375 -38.8125 L 45.015625 -38.8125 C 43.554688 -41.75 41.691406 -43.90625 39.421875 -45.28125 C 37.148438 -46.65625 34.222656 -47.34375 30.640625 -47.34375 C 27.347656 -47.34375 24.457031 -46.566406 21.96875 -45.015625 C 19.488281 -43.460938 17.5625 -41.132812 16.1875 -38.03125 C 14.820312 -34.9375 14.140625 -31.148438 14.140625 -26.671875 C 14.140625 -22.210938 14.832031 -18.441406 16.21875 -15.359375 C 17.601562 -12.285156 19.53125 -9.960938 22 -8.390625 C 24.46875 -6.828125 27.347656 -6.046875 30.640625 -6.046875 C 34.347656 -6.046875 37.421875 -6.882812 39.859375 -8.5625 C 42.296875 -10.238281 44.207031 -12.882812 45.59375 -16.5 L 46.609375 -16.5 L 51.78125 -13.453125 C 50.394531 -8.972656 47.921875 -5.441406 44.359375 -2.859375 C 40.796875 -0.273438 36.222656 1.015625 30.640625 1.015625 Z M 30.640625 1.015625 "/></g></g></g><g fill="#000000" fill-opacity="1"><g transform="translate(563.175172, 441.081501)"><g><path d="M 9.296875 0 L 9.296875 -53.390625 L 16.796875 -53.390625 L 16.796875 -45.015625 L 17.8125 -44.765625 C 20.289062 -50.835938 24.96875 -53.875 31.84375 -53.875 C 35.488281 -53.875 38.21875 -53.210938 40.03125 -51.890625 L 38 -45.203125 L 37.03125 -45.015625 C 35.03125 -46.015625 32.832031 -46.515625 30.4375 -46.515625 C 26.1875 -46.515625 22.914062 -44.914062 20.625 -41.71875 C 18.332031 -38.53125 17.1875 -33.351562 17.1875 -26.1875 L 17.1875 0 Z M 9.296875 0 "/></g></g></g><g fill="#000000" fill-opacity="1"><g transform="translate(604.411305, 441.081501)"><g><path d="M 50.875 -24.875 L 14.1875 -24.875 C 14.40625 -18.394531 15.957031 -13.632812 18.84375 -10.59375 C 21.738281 -7.5625 25.703125 -6.046875 30.734375 -6.046875 C 34.546875 -6.046875 37.613281 -6.722656 39.9375 -8.078125 C 42.257812 -9.429688 44.082031 -11.5625 45.40625 -14.46875 L 46.421875 -14.46875 L 51.546875 -11.421875 C 49.992188 -7.546875 47.515625 -4.503906 44.109375 -2.296875 C 40.710938 -0.0859375 36.253906 1.015625 30.734375 1.015625 C 25.566406 1.015625 21.128906 0 17.421875 -2.03125 C 13.710938 -4.0625 10.859375 -7.140625 8.859375 -11.265625 C 6.859375 -15.398438 5.859375 -20.535156 5.859375 -26.671875 C 5.859375 -32.734375 6.914062 -37.84375 9.03125 -42 C 11.144531 -46.164062 14.03125 -49.273438 17.6875 -51.328125 C 21.351562 -53.378906 25.539062 -54.40625 30.25 -54.40625 C 37.09375 -54.40625 42.429688 -52.472656 46.265625 -48.609375 C 50.109375 -44.753906 52.046875 -39.035156 52.078125 -31.453125 C 52.078125 -28.484375 52.015625 -26.484375 51.890625 -25.453125 Z M 44.28125 -31.453125 C 44.15625 -37.140625 42.898438 -41.269531 40.515625 -43.84375 C 38.128906 -46.425781 34.707031 -47.71875 30.25 -47.71875 C 25.570312 -47.71875 21.898438 -46.421875 19.234375 -43.828125 C 16.578125 -41.234375 14.957031 -37.109375 14.375 -31.453125 Z M 44.28125 -31.453125 "/></g></g></g><g fill="#000000" fill-opacity="1"><g transform="translate(661.328785, 441.081501)"><g><path d="M 50.875 -24.875 L 14.1875 -24.875 C 14.40625 -18.394531 15.957031 -13.632812 18.84375 -10.59375 C 21.738281 -7.5625 25.703125 -6.046875 30.734375 -6.046875 C 34.546875 -6.046875 37.613281 -6.722656 39.9375 -8.078125 C 42.257812 -9.429688 44.082031 -11.5625 45.40625 -14.46875 L 46.421875 -14.46875 L 51.546875 -11.421875 C 49.992188 -7.546875 47.515625 -4.503906 44.109375 -2.296875 C 40.710938 -0.0859375 36.253906 1.015625 30.734375 1.015625 C 25.566406 1.015625 21.128906 0 17.421875 -2.03125 C 13.710938 -4.0625 10.859375 -7.140625 8.859375 -11.265625 C 6.859375 -15.398438 5.859375 -20.535156 5.859375 -26.671875 C 5.859375 -32.734375 6.914062 -37.84375 9.03125 -42 C 11.144531 -46.164062 14.03125 -49.273438 17.6875 -51.328125 C 21.351562 -53.378906 25.539062 -54.40625 30.25 -54.40625 C 37.09375 -54.40625 42.429688 -52.472656 46.265625 -48.609375 C 50.109375 -44.753906 52.046875 -39.035156 52.078125 -31.453125 C 52.078125 -28.484375 52.015625 -26.484375 51.890625 -25.453125 Z M 44.28125 -31.453125 C 44.15625 -37.140625 42.898438 -41.269531 40.515625 -43.84375 C 38.128906 -46.425781 34.707031 -47.71875 30.25 -47.71875 C 25.570312 -47.71875 21.898438 -46.421875 19.234375 -43.828125 C 16.578125 -41.234375 14.957031 -37.109375 14.375 -31.453125 Z M 44.28125 -31.453125 "/></g></g></g><g fill="#000000" fill-opacity="1"><g transform="translate(718.246264, 441.081501)"><g><path d="M 9.296875 0 L 9.296875 -53.390625 L 16.796875 -53.390625 L 16.796875 -45.015625 L 17.8125 -44.765625 C 19.582031 -47.898438 21.847656 -50.289062 24.609375 -51.9375 C 27.367188 -53.582031 30.734375 -54.40625 34.703125 -54.40625 C 41.117188 -54.40625 45.769531 -52.765625 48.65625 -49.484375 C 51.550781 -46.210938 53 -41.171875 53 -34.359375 L 53 0 L 45.109375 0 L 45.109375 -34.171875 C 45.109375 -37.398438 44.695312 -39.988281 43.875 -41.9375 C 43.050781 -43.894531 41.773438 -45.316406 40.046875 -46.203125 C 38.328125 -47.085938 36.0625 -47.53125 33.25 -47.53125 C 28.445312 -47.53125 24.566406 -45.941406 21.609375 -42.765625 C 18.660156 -39.585938 17.1875 -34.460938 17.1875 -27.390625 L 17.1875 0 Z M 9.296875 0 "/></g></g></g><g fill="#000000" fill-opacity="1"><g transform="translate(779.71327, 441.081501)"><g><path d="M 24.34375 1.015625 C 20.988281 1.015625 17.882812 0.570312 15.03125 -0.3125 C 12.175781 -1.195312 9.765625 -2.414062 7.796875 -3.96875 C 5.828125 -5.519531 4.4375 -7.265625 3.625 -9.203125 L 8.28125 -14.03125 L 9.296875 -14.03125 C 11.035156 -11.382812 13.128906 -9.390625 15.578125 -8.046875 C 18.035156 -6.710938 20.957031 -6.046875 24.34375 -6.046875 C 28.28125 -6.046875 31.269531 -6.8125 33.3125 -8.34375 C 35.363281 -9.875 36.390625 -12.015625 36.390625 -14.765625 C 36.390625 -16.859375 35.769531 -18.585938 34.53125 -19.953125 C 33.289062 -21.328125 31.285156 -22.351562 28.515625 -23.03125 L 19.5 -25.265625 C 14.695312 -26.421875 11.1875 -28.257812 8.96875 -30.78125 C 6.757812 -33.300781 5.65625 -36.414062 5.65625 -40.125 C 5.65625 -43.03125 6.394531 -45.554688 7.875 -47.703125 C 9.363281 -49.847656 11.503906 -51.5 14.296875 -52.65625 C 17.085938 -53.820312 20.40625 -54.40625 24.25 -54.40625 C 29.15625 -54.40625 33.019531 -53.71875 35.84375 -52.34375 C 38.664062 -50.96875 40.867188 -49.054688 42.453125 -46.609375 L 38 -42.25 L 37.03125 -42.25 C 35.320312 -44.21875 33.457031 -45.632812 31.4375 -46.5 C 29.414062 -47.375 27.019531 -47.8125 24.25 -47.8125 C 20.726562 -47.8125 18.03125 -47.179688 16.15625 -45.921875 C 14.289062 -44.671875 13.359375 -42.851562 13.359375 -40.46875 C 13.359375 -38.300781 14.019531 -36.554688 15.34375 -35.234375 C 16.664062 -33.910156 18.972656 -32.847656 22.265625 -32.046875 L 31.125 -29.90625 C 35.769531 -28.8125 39.125 -26.988281 41.1875 -24.4375 C 43.25 -21.894531 44.28125 -18.703125 44.28125 -14.859375 C 44.28125 -11.734375 43.535156 -8.972656 42.046875 -6.578125 C 40.566406 -4.191406 38.328125 -2.328125 35.328125 -0.984375 C 32.328125 0.347656 28.664062 1.015625 24.34375 1.015625 Z M 24.34375 1.015625 "/></g></g></g><g fill="#000000" fill-opacity="1"><g transform="translate(829.080473, 441.081501)"><g><path d="M 9.296875 0 L 9.296875 -74.828125 L 17.1875 -74.828125 L 17.1875 -45.78125 L 18.203125 -45.59375 C 22.003906 -51.46875 27.503906 -54.40625 34.703125 -54.40625 C 41.117188 -54.40625 45.769531 -52.765625 48.65625 -49.484375 C 51.550781 -46.210938 53 -41.171875 53 -34.359375 L 53 0 L 45.109375 0 L 45.109375 -34.171875 C 45.109375 -37.398438 44.695312 -39.988281 43.875 -41.9375 C 43.050781 -43.894531 41.773438 -45.316406 40.046875 -46.203125 C 38.328125 -47.085938 36.0625 -47.53125 33.25 -47.53125 C 28.40625 -47.53125 24.515625 -45.960938 21.578125 -42.828125 C 18.648438 -39.703125 17.1875 -34.554688 17.1875 -27.390625 L 17.1875 0 Z M 9.296875 0 "/></g></g></g><g fill="#000000" fill-opacity="1"><g transform="translate(890.547479, 441.081501)"><g><path d="M 30.640625 1.015625 C 25.609375 1.015625 21.226562 -0.046875 17.5 -2.171875 C 13.769531 -4.304688 10.894531 -7.445312 8.875 -11.59375 C 6.863281 -15.738281 5.859375 -20.765625 5.859375 -26.671875 C 5.859375 -32.578125 6.863281 -37.609375 8.875 -41.765625 C 10.894531 -45.929688 13.769531 -49.078125 17.5 -51.203125 C 21.226562 -53.335938 25.609375 -54.40625 30.640625 -54.40625 C 35.671875 -54.40625 40.050781 -53.335938 43.78125 -51.203125 C 47.507812 -49.078125 50.378906 -45.929688 52.390625 -41.765625 C 54.410156 -37.609375 55.421875 -32.578125 55.421875 -26.671875 C 55.421875 -20.765625 54.410156 -15.738281 52.390625 -11.59375 C 50.378906 -7.445312 47.507812 -4.304688 43.78125 -2.171875 C 40.050781 -0.046875 35.671875 1.015625 30.640625 1.015625 Z M 30.640625 -6.046875 C 35.960938 -6.046875 40.035156 -7.722656 42.859375 -11.078125 C 45.679688 -14.441406 47.09375 -19.640625 47.09375 -26.671875 C 47.09375 -33.734375 45.679688 -38.941406 42.859375 -42.296875 C 40.035156 -45.660156 35.960938 -47.34375 30.640625 -47.34375 C 25.316406 -47.34375 21.234375 -45.65625 18.390625 -42.28125 C 15.554688 -38.90625 14.140625 -33.703125 14.140625 -26.671875 C 14.140625 -19.640625 15.554688 -14.441406 18.390625 -11.078125 C 21.234375 -7.722656 25.316406 -6.046875 30.640625 -6.046875 Z M 30.640625 -6.046875 "/></g></g></g><g fill="#000000" fill-opacity="1"><g transform="translate(951.820889, 441.081501)"><g><path d="M 36.109375 -8.46875 L 38.625 -2.8125 C 37.363281 -1.550781 35.707031 -0.597656 33.65625 0.046875 C 31.613281 0.691406 29.394531 1.015625 27 1.015625 C 16.8125 1.015625 11.71875 -4.144531 11.71875 -14.46875 L 11.71875 -46.953125 L 2.421875 -46.953125 L 2.421875 -53.4375 L 11.71875 -53.4375 L 11.71875 -64.71875 L 19.609375 -66.015625 L 19.609375 -53.4375 L 36.78125 -53.4375 L 36.78125 -46.953125 L 19.609375 -46.953125 L 19.609375 -15.25 C 19.609375 -9.113281 22.269531 -6.046875 27.59375 -6.046875 C 30.488281 -6.046875 32.988281 -6.851562 35.09375 -8.46875 Z M 36.109375 -8.46875 "/></g></g></g></svg>